<svg width="52.442" height="68.36" viewBox="0 0 52.442 68.36" xmlns="http://www.w3.org/2000/svg"><g id="svgGroup" stroke-linecap="round" fill-rule="evenodd" font-size="9pt" stroke="#6e6e6e" stroke-width="0.25mm" fill="#6e6e6e" style="stroke:#6e6e6e;stroke-width:0.25mm;fill:#6e6e6e"><path d="M 21.973 6.055 L 37.5 48.145 L 38.672 48.145 L 38.672 7.617 Q 38.672 5.152 39.277 3.39 A 7.51 7.51 0 0 1 39.868 2.075 A 3.508 3.508 0 0 1 41.471 0.661 Q 42.872 0 45.215 0 Q 48.703 0 50.3 1.132 A 3.189 3.189 0 0 1 51.148 2.002 A 7.09 7.09 0 0 1 51.982 3.884 Q 52.241 4.773 52.354 5.843 A 16.921 16.921 0 0 1 52.441 7.617 L 52.441 57.129 A 47.502 47.502 0 0 1 52.35 60.15 A 34.997 34.997 0 0 1 52.075 62.866 A 8.515 8.515 0 0 1 51.614 64.701 A 5.958 5.958 0 0 1 50.195 66.895 A 4.415 4.415 0 0 1 48.715 67.816 Q 47.327 68.36 45.215 68.36 L 38.77 68.36 A 9.625 9.625 0 0 1 36.826 68.174 Q 35.585 67.918 34.618 67.309 A 5.812 5.812 0 0 1 34.229 67.041 A 9.789 9.789 0 0 1 31.445 63.819 Q 30.42 61.914 29.785 60.156 L 15.039 20.215 L 13.867 20.215 L 13.867 60.742 Q 13.867 63.208 13.275 64.97 A 7.587 7.587 0 0 1 12.695 66.284 A 3.429 3.429 0 0 1 11.132 67.683 Q 9.886 68.281 7.87 68.35 A 15.806 15.806 0 0 1 7.324 68.36 A 16.992 16.992 0 0 1 5.343 68.253 Q 3.303 68.013 2.18 67.227 A 3.23 3.23 0 0 1 1.318 66.358 A 7.034 7.034 0 0 1 0.465 64.465 Q 0.203 63.578 0.089 62.511 A 16.62 16.62 0 0 1 0 60.742 L 0 11.231 A 47.328 47.328 0 0 1 0.089 8.26 Q 0.18 6.81 0.366 5.523 A 25.39 25.39 0 0 1 0.366 5.518 Q 0.732 2.979 2.295 1.489 A 4.644 4.644 0 0 1 3.879 0.525 Q 5.245 0.008 7.262 0 A 16.007 16.007 0 0 1 7.324 0 L 13.77 0 A 10.277 10.277 0 0 1 15.408 0.123 Q 16.764 0.342 17.749 0.952 A 12.7 12.7 0 0 1 19.127 1.931 A 9.441 9.441 0 0 1 20.264 3.028 A 8.899 8.899 0 0 1 21.125 4.276 Q 21.469 4.87 21.774 5.574 A 15.76 15.76 0 0 1 21.973 6.055 Z" vector-effect="non-scaling-stroke"/></g></svg>